<?xml version="1.0" standalone="no"?>
<!DOCTYPE svg PUBLIC "-//W3C//DTD SVG 20010904//EN"
 "http://www.w3.org/TR/2001/REC-SVG-20010904/DTD/svg10.dtd">
<svg version="1.0" xmlns="http://www.w3.org/2000/svg"
 width="1867.000000pt" height="1266.000000pt" viewBox="0 0 1867.000000 1266.000000"
 preserveAspectRatio="xMidYMid meet">

<g transform="translate(0.000000,1266.000000) scale(0.100000,-0.100000)"
fill="#000000" stroke="none">
<path d="M2880 9450 c-395 -30 -753 -160 -1039 -375 -175 -132 -359 -328 -346
-369 4 -12 20 -70 36 -130 96 -358 21 -780 -180 -1009 l-33 -37 35 -53 c19
-28 43 -67 54 -86 l21 -34 12 39 c38 116 141 288 232 386 l43 46 0 129 c1 93
7 158 23 238 31 148 38 304 21 435 -20 155 -18 178 15 206 36 32 88 31 154 -2
95 -47 168 -161 213 -331 l23 -85 28 79 c82 221 207 431 344 573 222 230 468
325 777 300 607 -50 975 -411 1158 -1139 21 -85 45 -158 51 -163 19 -12 52
-10 66 4 9 9 12 178 12 700 l0 688 -24 0 c-21 0 -24 -5 -30 -57 -8 -76 -46
-154 -87 -185 -54 -41 -102 -51 -203 -45 -105 6 -163 23 -408 118 -289 112
-471 152 -738 162 -69 3 -172 2 -230 -3z"/>
<path d="M720 9252 c-17 -17 -30 -44 -35 -70 -4 -23 -9 -42 -11 -42 -2 0 -35
14 -72 31 -73 33 -113 39 -136 20 -21 -18 -39 -105 -34 -167 4 -47 3 -54 -11
-48 -9 4 -32 9 -51 11 -44 6 -55 -6 -108 -112 -52 -103 -72 -174 -72 -250 l0
-62 -66 1 c-61 1 -68 -1 -91 -28 -23 -27 -25 -36 -20 -85 15 -152 133 -396
262 -539 112 -125 243 -191 514 -262 246 -64 318 -97 399 -186 71 -77 142
-207 171 -314 36 -129 41 -127 -123 -44 -167 83 -316 143 -436 175 -67 18
-113 23 -215 23 l-130 1 -3 -33 c-3 -28 5 -40 60 -95 95 -95 359 -262 515
-327 142 -59 284 -84 345 -61 l24 9 11 -132 c25 -277 125 -497 313 -685 204
-203 486 -320 910 -377 149 -20 511 -23 670 -5 434 48 750 191 988 446 l64 67
-26 -50 c-14 -27 -53 -84 -88 -127 -35 -42 -72 -88 -82 -100 -38 -48 -17 -60
346 -205 467 -186 636 -274 761 -393 107 -103 157 -217 157 -356 0 -354 -328
-612 -748 -587 -250 15 -474 90 -682 229 -108 72 -284 252 -360 367 -84 127
-151 268 -201 423 -36 110 -45 128 -66 133 -16 4 -31 0 -43 -11 -19 -18 -20
-35 -20 -577 l0 -558 24 0 c22 0 23 4 29 83 12 190 87 288 210 274 62 -8 146
-47 301 -141 292 -177 484 -246 771 -277 130 -14 358 -7 495 16 599 98 970
485 970 1009 0 400 -215 688 -683 914 -128 62 -261 118 -590 247 -575 225
-807 405 -877 680 -73 287 56 569 321 698 128 63 225 82 384 74 295 -14 562
-128 771 -329 116 -112 201 -228 278 -378 57 -112 136 -325 136 -365 0 -10 10
-15 30 -15 l30 0 0 570 0 570 -24 0 c-22 0 -25 -5 -31 -62 -16 -151 -59 -221
-146 -236 -90 -16 -140 0 -464 146 -205 92 -361 133 -581 152 -554 47 -1055
-195 -1264 -610 -103 -206 -136 -471 -86 -700 55 -255 222 -479 487 -653 103
-67 110 -74 107 -102 -3 -26 -11 -34 -62 -59 -76 -37 -254 -81 -386 -97 -253
-29 -545 24 -745 136 -360 201 -586 634 -650 1247 -8 81 -15 165 -15 187 0 37
-7 47 -89 128 -49 48 -107 116 -129 151 l-40 62 -36 -48 c-120 -164 -217 -475
-215 -691 0 -53 4 -104 7 -114 7 -16 11 -14 37 14 68 72 307 269 328 270 45 2
63 -3 87 -27 23 -22 25 -33 28 -128 3 -72 -1 -123 -12 -167 -38 -152 -162
-334 -283 -416 l-63 -41 40 -59 c102 -152 216 -264 364 -357 49 -31 85 -56 80
-56 -5 0 -54 22 -109 49 -171 85 -315 218 -419 389 -41 69 -44 82 -16 82 53 0
135 62 212 159 107 134 151 249 152 397 1 92 -9 124 -40 124 -18 0 -276 -222
-337 -290 -27 -30 -58 -72 -70 -94 l-21 -41 -7 45 c-3 25 -9 113 -13 195 -6
130 -4 164 14 252 54 268 140 464 268 611 35 40 46 40 62 1 22 -53 89 -149
143 -206 103 -109 230 -191 368 -237 158 -53 271 -52 323 3 68 71 35 167 -96
282 -43 38 -95 80 -118 95 -22 15 -40 30 -40 33 0 4 84 17 188 30 213 27 275
42 297 74 40 57 -47 221 -154 288 l-25 16 21 29 c57 80 113 225 113 291 0 42
-22 51 -130 60 -173 13 -364 -41 -522 -148 l-57 -38 -5 27 c-3 15 -8 52 -12
82 -16 131 -82 303 -144 373 -40 46 -122 82 -151 66 -18 -9 -21 -17 -16 -52
34 -236 31 -372 -13 -595 -21 -110 -26 -246 -10 -301 9 -33 8 -36 -63 -110
-120 -126 -201 -275 -260 -479 l-23 -82 -32 82 c-17 46 -52 115 -78 153 -26
39 -50 87 -54 107 -7 34 -4 40 40 87 148 159 234 493 201 778 -7 55 -23 143
-37 195 -42 156 -156 371 -237 446 -35 33 -75 26 -103 -15 l-22 -32 -18 47
c-39 103 -232 252 -326 252 -11 0 -32 -13 -48 -28z m137 -88 c88 -53 149 -118
173 -187 27 -75 25 -122 -9 -242 l-28 -99 -21 40 c-37 72 -117 131 -244 179
-27 10 -48 21 -48 24 0 4 9 25 19 47 10 21 29 86 41 144 27 130 27 130 42 130
8 0 41 -16 75 -36z m-263 -74 c63 -29 66 -32 60 -58 -11 -48 -43 -112 -58
-118 -26 -10 -73 23 -80 57 -9 46 -7 149 3 149 4 0 38 -14 75 -30z m685 -249
c58 -96 102 -205 134 -329 18 -72 21 -115 22 -257 0 -146 -4 -182 -23 -258
-31 -116 -74 -220 -120 -286 l-37 -55 -9 42 c-8 37 -5 51 22 110 73 158 105
299 105 467 0 185 -35 329 -153 625 -28 73 -7 51 59 -59z m-14 -113 c79 -226
103 -386 85 -555 -12 -110 -44 -238 -80 -313 l-21 -45 5 50 c3 28 8 77 11 110
8 79 -8 299 -44 597 -16 134 -32 270 -35 303 l-5 60 25 -53 c13 -29 40 -98 59
-154z m-637 83 c162 -65 190 -79 235 -120 60 -54 96 -164 106 -328 3 -57 5
-103 4 -103 -1 0 -30 29 -65 64 -35 35 -79 93 -98 127 -23 42 -68 95 -134 159
-203 195 -276 268 -276 279 0 12 20 5 228 -78z m542 45 c0 -18 13 -141 30
-272 50 -406 57 -558 33 -732 -6 -50 -13 -46 -38 23 -9 28 -42 97 -72 155 -61
120 -72 172 -73 346 0 138 21 267 67 407 36 109 53 133 53 73z m-767 -6 c10
-16 59 -67 110 -112 137 -124 229 -217 266 -271 18 -27 31 -50 29 -52 -2 -2
-24 9 -48 26 -46 30 -169 74 -241 85 -38 6 -41 10 -79 88 -42 87 -70 180 -70
233 0 41 10 42 33 3z m2 -203 c20 -45 39 -88 42 -96 5 -12 -5 -13 -57 -8 -35
4 -75 7 -91 7 -24 0 -28 5 -33 38 -9 52 9 134 46 216 l33 70 12 -72 c6 -40 28
-109 48 -155z m1560 -52 c65 -137 99 -340 76 -459 -16 -88 -54 -160 -117 -227
-51 -53 -59 -58 -68 -42 -17 30 -10 171 15 293 21 100 24 142 24 327 0 204 1
211 18 195 10 -9 33 -48 52 -87z m-1635 -125 c203 -21 274 -36 353 -76 137
-69 297 -244 385 -419 57 -115 112 -297 112 -372 0 -24 -1 -25 -18 -11 -48 43
-136 76 -352 133 -211 55 -264 76 -355 136 -148 99 -263 264 -335 478 -17 49
-30 103 -30 120 0 38 -9 38 240 11z m2166 -165 c-106 -66 -247 -165 -336 -234
-35 -27 -65 -49 -67 -48 -1 2 5 26 13 54 32 108 207 225 399 268 33 7 64 14
69 14 5 1 -30 -24 -78 -54z m259 45 c14 -23 -175 -208 -335 -328 -171 -127
-366 -221 -435 -208 l-37 7 46 49 c25 27 51 61 58 74 22 50 400 325 529 386
66 31 161 42 174 20z m-62 -170 c-21 -38 -65 -101 -97 -140 -49 -58 -77 -80
-159 -127 -167 -93 -248 -124 -315 -121 l-57 3 95 47 c169 83 366 226 505 367
33 34 61 57 63 51 2 -6 -14 -41 -35 -80z m-4 -204 c15 -8 43 -32 61 -52 34
-39 76 -122 66 -131 -6 -6 -486 -72 -521 -72 -11 0 4 8 33 18 71 25 151 80
247 173 44 43 81 78 83 78 2 0 16 -7 31 -14z m-289 -111 c0 -8 -86 -55 -101
-55 -8 1 11 14 41 30 61 32 60 32 60 25z m-335 -150 c44 -13 107 -36 140 -50
146 -65 384 -255 401 -319 16 -67 -33 -87 -154 -62 -241 49 -453 210 -562 425
l-22 44 59 -8 c32 -4 94 -18 138 -30z m-1345 -497 c96 -16 226 -62 393 -138
152 -71 231 -115 263 -151 16 -17 16 -22 4 -29 -49 -31 -195 14 -465 144 -117
56 -306 163 -329 186 -10 10 20 7 134 -12z m217 -207 c226 -102 311 -133 374
-135 76 -1 65 -16 -13 -16 -118 0 -296 73 -518 213 -117 73 -154 106 -48 43
42 -26 134 -73 205 -105z m902 -243 c-18 -35 -50 -89 -72 -122 -42 -62 -177
-210 -185 -202 -12 13 85 160 177 266 57 66 105 120 107 120 2 0 -10 -28 -27
-62z m-19 48 c0 -2 -44 -56 -97 -119 -54 -63 -117 -150 -141 -193 -39 -72 -43
-75 -38 -41 11 83 52 147 163 255 98 95 113 108 113 98z m41 -102 c-29 -82
-76 -156 -147 -230 -57 -59 -128 -104 -142 -89 -4 3 22 31 55 61 75 67 174
195 217 282 36 74 46 60 17 -24z"/>
<path d="M7840 8886 c-259 -55 -439 -226 -509 -486 -23 -86 -41 -218 -41 -305
0 -151 -68 -225 -207 -225 l-43 0 0 -79 0 -79 71 -27 c159 -61 181 -130 194
-610 7 -255 -8 -943 -25 -1135 -39 -448 -105 -626 -261 -706 -28 -14 -49 -30
-46 -37 7 -21 89 -39 162 -34 202 14 381 142 477 342 21 44 48 116 60 160 l23
80 -4 825 c-1 454 0 876 4 937 l7 113 172 0 c148 0 176 3 206 19 50 26 71 68
77 155 8 104 7 107 -58 90 -36 -9 -113 -14 -231 -14 l-177 0 6 178 c3 97 11
208 19 247 46 232 215 360 469 359 167 -2 314 -53 402 -140 25 -25 49 -42 53
-37 14 14 -7 107 -35 163 -53 104 -180 195 -330 236 -81 23 -345 28 -435 10z"/>
<path d="M8452 8274 c-51 -13 -62 -19 -58 -32 8 -25 43 -336 55 -487 25 -304
33 -641 26 -1090 l-7 -461 22 -52 c26 -60 82 -115 149 -146 39 -18 64 -21 166
-21 138 1 198 18 286 85 52 39 122 126 113 141 -2 4 -28 -3 -57 -16 -100 -47
-186 -25 -234 60 -45 81 -47 123 -35 995 8 581 8 827 1 857 -35 137 -234 215
-427 167z"/>
<path d="M9948 7900 c-190 -40 -335 -116 -463 -245 -282 -282 -374 -772 -216
-1154 134 -323 426 -518 806 -538 482 -26 858 258 990 749 159 591 -134 1095
-694 1193 -115 21 -314 18 -423 -5z m309 -168 c186 -58 317 -237 376 -512 15
-72 20 -132 20 -250 1 -559 -248 -912 -583 -826 -81 21 -142 56 -202 118 -289
297 -302 1051 -24 1356 87 94 165 131 283 132 42 0 95 -7 130 -18z"/>
<path d="M14681 7909 c-343 -67 -617 -369 -701 -769 -75 -363 15 -714 242
-937 78 -77 116 -106 193 -145 145 -74 294 -105 464 -95 133 8 242 36 351 89
116 58 240 179 295 290 52 106 44 120 -38 68 -279 -176 -574 -218 -785 -111
-142 72 -243 211 -293 401 -25 97 -40 280 -24 286 6 3 37 -7 68 -21 123 -54
209 -70 372 -69 179 2 296 27 424 94 172 89 261 228 261 405 0 315 -274 528
-673 524 -62 -1 -132 -5 -156 -10z m243 -193 c95 -56 152 -191 144 -338 -8
-140 -74 -229 -205 -278 -103 -38 -304 -24 -435 32 -43 18 -48 24 -48 53 0 46
34 172 70 259 57 136 140 237 237 288 57 29 173 22 237 -16z"/>
<path d="M17470 7905 c-227 -49 -397 -177 -472 -356 -19 -46 -22 -72 -22 -179
0 -148 17 -203 92 -303 72 -93 164 -158 372 -259 301 -146 327 -160 384 -204
121 -95 139 -240 45 -348 -150 -170 -574 -102 -799 128 -24 25 -48 46 -52 46
-12 0 -67 -114 -78 -164 -12 -55 -2 -87 43 -134 65 -68 228 -130 418 -158 539
-79 955 254 854 684 -50 210 -177 325 -536 483 -222 97 -273 125 -331 177 -55
50 -78 99 -78 169 0 195 191 317 398 254 113 -34 210 -110 329 -256 l33 -40
35 40 c47 51 96 153 102 209 7 60 -20 96 -100 135 -159 78 -459 114 -637 76z"/>
<path d="M11230 7894 c-93 -11 -170 -27 -170 -34 0 -4 7 -13 15 -20 30 -25
104 -147 145 -240 90 -204 202 -519 389 -1096 52 -160 103 -299 119 -325 62
-98 194 -177 341 -206 45 -9 83 -14 85 -12 3 3 64 133 137 289 131 285 226
508 250 588 7 23 17 41 23 39 6 -2 54 -145 107 -318 52 -173 105 -332 116
-354 27 -53 117 -137 179 -168 67 -34 178 -66 238 -70 l50 -2 293 815 c161
448 311 852 334 897 22 45 59 103 81 128 22 25 38 52 35 59 -13 32 -223 42
-289 14 -63 -28 -81 -75 -173 -440 -101 -405 -131 -508 -242 -850 -50 -155
-92 -268 -99 -268 -34 0 -310 850 -445 1369 -18 68 -29 91 -59 121 -57 57
-135 83 -250 84 -91 0 -200 -18 -200 -33 0 -4 18 -50 41 -101 61 -141 118
-314 135 -409 27 -154 -4 -335 -106 -606 -76 -203 -173 -420 -189 -420 -28 0
-361 933 -458 1280 -19 72 -42 142 -49 156 -20 40 -90 96 -143 114 -47 16
-178 27 -241 19z"/>
<path d="M15790 7887 c-25 -6 -45 -16 -45 -22 0 -5 8 -42 17 -80 49 -202 75
-707 58 -1100 -13 -302 -12 -487 1 -545 22 -100 84 -150 192 -158 66 -5 277
26 277 40 0 6 -7 33 -15 61 -33 117 -47 280 -52 629 -6 364 -1 443 38 586 25
93 50 143 102 199 55 60 107 85 189 91 82 6 137 -8 247 -59 70 -33 87 -37 98
-26 34 34 57 276 31 332 -32 71 -187 88 -336 36 -45 -16 -111 -48 -147 -71
-77 -50 -180 -157 -215 -223 -23 -44 -51 -68 -35 -29 4 9 10 53 12 98 6 88
-10 136 -59 180 -54 50 -108 68 -213 71 -57 1 -119 -3 -145 -10z"/>
<path d="M1090 7362 l0 -122 103 -49 c56 -26 104 -47 105 -45 2 1 -7 31 -19
65 -27 73 -101 190 -153 238 l-36 35 0 -122z"/>
<path d="M1211 6654 c58 -164 164 -353 268 -478 48 -57 52 -54 12 11 -69 112
-127 301 -138 444 l-6 86 -66 6 c-36 3 -74 9 -84 12 -15 6 -13 -5 14 -81z"/>
<path d="M10250 5111 l0 -321 140 0 c185 0 232 19 283 115 20 36 22 55 22 195
0 173 -8 209 -58 260 -50 52 -86 62 -244 68 l-143 5 0 -322z m280 211 c57 -28
70 -67 69 -212 0 -69 -5 -140 -12 -160 -19 -53 -64 -74 -162 -75 l-80 0 -3
233 -2 232 77 0 c54 0 89 -5 113 -18z"/>
<path d="M11197 5423 c-4 -3 -7 -147 -7 -320 l0 -313 205 0 205 0 0 40 0 40
-155 0 -155 0 0 100 0 100 135 0 135 0 0 40 0 40 -135 0 -135 0 0 95 0 95 155
0 155 0 0 45 0 45 -198 0 c-109 0 -202 -3 -205 -7z"/>
<path d="M12188 5421 c-116 -38 -168 -150 -119 -258 25 -54 76 -81 190 -99 70
-11 90 -18 109 -39 39 -46 23 -113 -33 -140 -62 -29 -177 -14 -225 30 -14 13
-20 11 -48 -18 -31 -32 -32 -34 -14 -50 55 -50 182 -77 273 -58 104 23 159 85
159 183 0 106 -55 158 -190 179 -41 6 -87 17 -101 25 -53 27 -54 117 -2 151
39 26 130 23 178 -6 l38 -22 28 27 c34 32 28 44 -35 76 -45 23 -162 34 -208
19z"/>
<path d="M12970 5110 l0 -320 45 0 45 0 0 320 0 320 -45 0 -45 0 0 -320z"/>
<path d="M13679 5403 c-35 -18 -64 -43 -84 -71 -30 -43 -30 -45 -33 -199 -3
-105 0 -170 9 -201 34 -122 200 -187 322 -126 89 45 127 119 127 251 l0 73
-115 0 -115 0 0 -40 0 -40 65 0 65 0 0 -42 c0 -55 -17 -87 -59 -115 -66 -45
-154 -23 -188 47 -25 50 -25 290 0 337 22 41 64 63 121 63 36 0 52 -6 80 -30
18 -17 37 -41 40 -55 6 -23 11 -25 57 -25 48 0 50 1 44 23 -47 153 -196 220
-336 150z"/>
<path d="M14517 5423 c-4 -3 -7 -147 -7 -320 l0 -313 50 0 50 0 0 223 0 222
146 -222 146 -223 44 0 44 0 0 320 0 320 -45 0 -45 0 0 -220 c0 -121 -3 -220
-7 -220 -5 1 -73 100 -152 220 l-143 220 -37 0 c-21 0 -41 -3 -44 -7z"/>
</g>
</svg>
