<?xml version="1.0" encoding="UTF-8" standalone="no"?>
<svg
   xmlns:dc="http://purl.org/dc/elements/1.1/"
   xmlns:cc="http://creativecommons.org/ns#"
   xmlns:rdf="http://www.w3.org/1999/02/22-rdf-syntax-ns#"
   xmlns:svg="http://www.w3.org/2000/svg"
   xmlns="http://www.w3.org/2000/svg"
   viewBox="0 0 755.90533 755.90533"
   height="755.90533"
   width="755.90533"
   xml:space="preserve"
   id="svg2"
   version="1.1"><metadata
     id="metadata8"><rdf:RDF><cc:Work
         rdf:about=""><dc:format>image/svg+xml</dc:format><dc:type
           rdf:resource="http://purl.org/dc/dcmitype/StillImage" /></cc:Work></rdf:RDF></metadata><defs
     id="defs6"><linearGradient
       id="linearGradient34"
       spreadMethod="pad"
       gradientTransform="matrix(-43.597431,-97.921432,97.921432,-43.597431,282.21527,446.46252)"
       gradientUnits="userSpaceOnUse"
       y2="0"
       x2="1"
       y1="0"
       x1="0"><stop
         id="stop24"
         offset="0"
         style="stop-opacity:1;stop-color:#7e8c09" /><stop
         id="stop26"
         offset="0.35605"
         style="stop-opacity:1;stop-color:#7e8c09" /><stop
         id="stop28"
         offset="0.72706529"
         style="stop-opacity:1;stop-color:#303502" /><stop
         id="stop30"
         offset="0.821715"
         style="stop-opacity:1;stop-color:#303502" /><stop
         id="stop32"
         offset="1"
         style="stop-opacity:1;stop-color:#303502" /></linearGradient><linearGradient
       id="linearGradient56"
       spreadMethod="pad"
       gradientTransform="matrix(99.895393,-196.05576,196.05576,99.895393,212.27094,441.2428)"
       gradientUnits="userSpaceOnUse"
       y2="0"
       x2="1"
       y1="0"
       x1="0"><stop
         id="stop50"
         offset="0"
         style="stop-opacity:1;stop-color:#cce310" /><stop
         id="stop52"
         offset="0.66113871"
         style="stop-opacity:1;stop-color:#cce310" /><stop
         id="stop54"
         offset="1"
         style="stop-opacity:1;stop-color:#7e8c09" /></linearGradient><clipPath
       id="clipPath66"
       clipPathUnits="userSpaceOnUse"><path
         id="path64"
         d="M 0,566.929 H 566.929 V 0 H 0 Z" /></clipPath><linearGradient
       id="linearGradient224"
       spreadMethod="pad"
       gradientTransform="matrix(12.219302,-23.981731,23.981731,12.219302,315.83496,397.0007)"
       gradientUnits="userSpaceOnUse"
       y2="0"
       x2="1"
       y1="0"
       x1="0"><stop
         id="stop218"
         offset="0"
         style="stop-opacity:1;stop-color:#cce310" /><stop
         id="stop220"
         offset="0.79908746"
         style="stop-opacity:1;stop-color:#cce310" /><stop
         id="stop222"
         offset="1"
         style="stop-opacity:1;stop-color:#7e8c09" /></linearGradient></defs><g
     transform="matrix(1.3333333,0,0,-1.3333333,0,755.90533)"
     id="g10"><g
       id="g12"><g
         id="g14"><g
           id="g20"><g
             id="g22"><path
               id="path36"
               style="fill:url(#linearGradient34);stroke:none"
               d="m 313.124,431.909 c -0.179,-7.299 -3.564,-9.613 -8.722,-9.613 v 0 c -10.86,0 -19.228,9.613 -41.481,9.613 v 0 c -22.206,0 -40.517,-9.13 -52.082,-24.424 v 0 c 3.918,-10.053 4.02,-21.659 -0.213,-31.623 v 0 l -0.103,-0.24 c -1.458,-3.362 -3.112,-5.816 -5.155,-7.633 v 0 c 0.018,-0.277 0.034,-0.545 0.045,-0.804 v 0 c 1.295,-1.652 2.413,-3.44 3.352,-5.353 v 0 c 0.3,0.891 0.62,1.752 0.958,2.588 v 0 c 2.177,5.411 5.287,9.989 9.031,13.325 v 0 c -1.062,3.957 -0.277,7.966 0.423,11.544 v 0 c 0.135,0.684 0.266,1.365 0.387,2.039 v 0 c 0.997,5.646 0.941,11.36 -0.167,16.98 v 0 c -0.208,1.056 0.12,2.137 0.866,2.877 v 0 c 0.598,0.605 1.429,0.953 2.28,0.953 v 0 c 0.194,0 0.392,-0.018 0.587,-0.055 v 0 c 4.123,-0.767 7.167,-4.182 9.052,-10.149 v 0 c 0.553,-1.753 0.939,-3.344 1.249,-4.88 v 0 c 6.322,19.926 19.077,32.185 35.009,32.185 v 0 c 22.356,-0.324 36.897,-12.883 43.09,-42.64 v 0 c 0.163,-0.78 0.844,-1.353 1.64,-1.353 v 0 h 0.049 c 0.931,0 1.685,0.753 1.685,1.683 v 0 44.98 0 z" /></g></g></g></g><g
       id="g38"><g
         id="g40"><g
           id="g46"><g
             id="g48"><path
               id="path58"
               style="fill:url(#linearGradient56);stroke:none"
               d="m 185.106,425.19 c -0.532,-0.521 -0.754,-1.167 -0.922,-1.787 v 0 c -0.183,-0.688 -0.329,-1.398 -0.466,-2.112 v 0 l -4.381,1.942 c -1.5,0.664 -2.342,0.115 -2.71,-0.268 v 0 c -0.337,-0.352 -0.461,-0.761 -0.52,-0.954 v 0 c -0.623,-2.051 -0.725,-4.244 -0.315,-6.342 v 0 l -1.518,0.6 c -0.203,0.081 -0.548,0.217 -0.975,0.208 v 0 c -1.179,-0.024 -1.797,-1.051 -2,-1.387 v 0 c -2.231,-3.705 -4.564,-8.416 -3.76,-13.042 v 0 l -2.088,0.184 c -0.671,0.061 -1.683,0.151 -2.592,-0.42 v 0 c -0.9,-0.562 -1.831,-1.812 -1.16,-4.566 v 0 c 2.556,-10.5 8.41,-18.685 16.065,-22.459 v 0 c 3.13,-1.544 6.519,-2.362 9.799,-3.15 v 0 c 1.107,-0.267 2.216,-0.535 3.311,-0.829 v 0 c 4.34,-1.165 7.767,-2.568 10.365,-5.625 v 0 c 0.01,-0.012 0.018,-0.021 0.027,-0.031 v 0 c 3.343,-3.948 5.447,-8.91 6.164,-14.408 v 0 c -1.181,0.854 -2.595,1.592 -3.964,2.263 v 0 l -0.401,0.197 c -8.505,4.221 -16.883,7.939 -25.866,7.082 v 0 c -0.438,-0.042 -0.826,-0.305 -1.027,-0.697 v 0 c -0.208,-0.389 -0.189,-0.862 0.034,-1.241 v 0 c 1.801,-3.084 4.814,-5.048 7.473,-6.778 v 0 c 3.94,-2.57 8.016,-5.227 12.561,-6.963 v 0 c 3.706,-1.416 8.669,-2.954 11.666,-1.403 v 0 c 0.097,-2.744 0.219,-5.562 0.683,-8.339 v 0 c 1.775,-10.609 8.949,-20.227 18.456,-25.271 v 0 l -0.007,-0.011 c 0,0 2.437,-1.418 7.403,-3.059 v 0 c 0,-10e-4 -0.001,-0.002 -0.001,-0.003 v 0 c 0.027,-0.009 0.058,-0.017 0.085,-0.026 v 0 c 0.723,-0.238 1.503,-0.479 2.332,-0.723 v 0 c 0.189,-0.056 0.375,-0.115 0.564,-0.169 v 0 c 0.039,-0.012 0.069,-0.022 0.108,-0.032 v 0 l -0.001,0.004 c 6.8,-1.914 14.387,-2.908 22.724,-2.908 v 0 c 15.031,0 26.379,2.356 35.413,8.191 v 0 c 2.011,1.32 8.865,6.037 11.175,10.419 v 0 c 0,0 -1.647,-5.078 -6.739,-9.8 v 0 c -0.89,-0.829 -0.684,-2.307 0.43,-2.798 v 0 c 19.635,-8.654 41.726,-13.291 41.726,-29.388 v 0 c 0,-11.588 -10.223,-19.935 -23.685,-19.765 v 0 c -20.09,0.451 -37.767,13.626 -43.898,37.382 v 0 c -0.191,0.744 -0.851,1.273 -1.619,1.273 v 0 c -0.929,0 -1.683,-0.754 -1.683,-1.684 v 0 -36.802 h 1.534 c 0,7.839 2.214,12.099 6.475,12.099 v 0 c 8.52,0 16.87,-14.313 42.599,-14.313 v 0 c 26.242,0 42.941,13.972 42.941,34.589 v 0 c 0,42.259 -72.589,32.035 -72.589,66.796 v 0 c 0,10.905 9.03,20.448 22.151,20.448 v 0 c 20.96,0 36.636,-14.484 41.92,-36.465 v 0 h 1.702 v 38.169 h -1.702 c 0,-7.326 -2.047,-10.224 -6.307,-10.224 v 0 c -8.349,0 -16.698,10.395 -37.828,10.395 v 0 c -24.195,0 -41.579,-15.336 -41.579,-36.125 v 0 c 0,-7.846 2.178,-14.072 5.773,-19.161 v 0 c 3.595,-5.09 8.608,-9.041 14.278,-12.335 v 0 c 1.197,-0.697 1.08,-2.461 -0.193,-3.011 v 0 c -6.132,-2.648 -12.509,-3.973 -19.08,-3.973 v 0 c -26.208,0 -40.842,18.959 -42.249,54.265 v 0 c -3.454,2.645 -6.383,5.978 -8.465,9.781 v 0 c -2.033,-2.39 -3.767,-5.318 -5.082,-8.606 v 0 c -1.872,-4.642 -2.822,-9.492 -3.5,-13.651 v 0 c 0.084,-1.285 0.151,-2.679 0.208,-4.361 v 0 c 0.03,-0.865 0.061,-1.77 0.107,-2.692 v 0 c 1.584,1.808 3.371,3.339 5.12,4.837 v 0 l 5.679,4.857 c 0.579,0.496 1.321,0.771 2.084,0.771 v 0 c 0.375,0 0.743,-0.065 1.097,-0.195 v 0 c 1.085,-0.394 1.877,-1.346 2.067,-2.482 v 0 c 0.639,-3.825 0.129,-7.846 -1.476,-11.63 v 0 c -0.61,-1.432 -1.369,-2.805 -2.255,-4.079 v 0 c -1.703,-2.453 -4.759,-6.238 -8.195,-7.644 v 0 c 0,0 6.489,-12.099 18.75,-16.672 v 0 -0.001 c -0.74,0.215 -1.686,0.504 -2.718,0.871 v 0 c -0.017,0.006 -0.029,0.02 -0.044,0.025 v 0 c -8.219,2.82 -15.131,9.275 -18.864,17.149 v 0 c 3.862,-0.278 8.231,5.537 9.5,7.363 v 0 c 0.823,1.184 1.512,2.438 2.064,3.736 v 0 c 1.443,3.397 1.932,7.088 1.349,10.566 v 0 c -0.076,0.459 -0.395,0.842 -0.832,1.001 v 0 c -0.438,0.159 -0.929,0.069 -1.285,-0.232 v 0 l -5.675,-4.858 c -2.384,-2.041 -4.851,-4.15 -6.654,-6.903 v 0 c -0.284,-0.433 -0.711,-1.204 -1.108,-2.138 v 0 c -0.422,2.718 -0.529,5.544 -0.623,8.284 v 0 c -0.052,1.507 -0.118,3.015 -0.221,4.518 v 0 c 0.761,4.7 1.772,9.612 3.651,14.276 v 0 c 1.821,4.554 4.367,8.388 7.395,11.232 v 0 c 0.067,-0.216 0.152,-0.435 0.254,-0.658 v 0 c 4.07,-8.913 12.975,-15.503 22.689,-16.788 v 0 c 3.028,-0.401 5.252,0.362 6.26,2.146 v 0 c 0.076,0.138 0.144,0.275 0.204,0.414 v 0 c 0.828,1.956 -0.013,4.31 -2.413,6.681 v 0 c -2.343,2.315 -4.833,4.309 -7.413,5.974 v 0 l 10.871,1.394 c 1.349,0.175 2.743,0.352 4.124,0.765 v 0 c 0.381,0.115 1.395,0.417 1.834,1.395 v 0 c 0.008,0.017 0.015,0.034 0.022,0.05 v 0 c 0.247,0.581 0.189,1.142 0.097,1.618 v 0 c -0.669,3.495 -3.09,6.585 -6.271,8.161 v 0 c 1.21,1.683 2.232,3.428 2.995,5.225 v 0 c 0.785,1.848 1.322,3.743 1.593,5.655 v 0 c 0.096,0.676 -0.351,1.31 -1.019,1.448 v 0 c -8.034,1.658 -16.725,-0.699 -22.924,-6.038 v 0 c -0.046,2.942 -0.633,6.126 -1.838,9.944 v 0 c -1.654,5.24 -4.204,8.216 -7.576,8.844 v 0 c -0.422,0.077 -0.855,-0.057 -1.156,-0.362 v 0 c -0.305,-0.303 -0.434,-0.739 -0.349,-1.159 v 0 c 1.154,-5.857 1.209,-11.806 0.173,-17.686 v 0 c -0.123,-0.686 -0.258,-1.379 -0.394,-2.074 v 0 c -0.761,-3.885 -1.547,-7.901 -0.11,-11.748 v 0 c 0.008,-0.02 0.014,-0.039 0.023,-0.059 v 0 c -3.953,-3.19 -7.216,-7.813 -9.471,-13.409 v 0 c -1.052,-2.61 -1.836,-5.275 -2.463,-7.93 v 0 c -1.126,3.981 -2.975,7.615 -5.511,10.708 v 0 c -0.02,0.784 -0.071,1.567 -0.138,2.347 v 0 c 2.15,1.657 3.869,4.062 5.383,7.554 v 0 c 0.038,0.085 0.073,0.171 0.11,0.255 v 0 c 5.623,13.242 3.266,29.531 -5.905,40.623 v 0 c -0.269,0.324 -0.979,1.183 -2.091,1.146 v 0 c -1.328,-0.041 -1.964,-1.259 -2.175,-1.661 v 0 c -0.134,-0.258 -0.255,-0.521 -0.387,-0.781 v 0 c -0.481,1.689 -1.22,3.282 -2.112,4.339 v 0 c -1.826,2.164 -4.255,3.668 -6.388,4.853 v 0 c -1.095,0.608 -1.985,0.824 -2.696,0.824 v 0 c -1.005,0 -1.652,-0.431 -2.018,-0.792 m 6.715,-16.905 c -1.855,1.779 -4.257,2.728 -6.372,3.566 v 0 l -1.801,0.712 c 1.483,2.107 1.952,4.662 2.402,7.147 v 0 c 0.185,1.022 0.371,2.045 0.632,3.024 v 0 c 0.035,0.127 0.141,0.513 0.238,0.614 v 0 c 0.096,0.092 0.639,0.107 1.643,-0.45 v 0 c 1.929,-1.072 4.112,-2.416 5.669,-4.261 v 0 c 1.353,-1.604 2.35,-5.263 2.047,-7.458 v 0 c -0.792,-2.203 -1.41,-4.464 -1.854,-6.755 v 0 c -0.61,1.43 -1.433,2.74 -2.604,3.861 m -13.045,6.205 c -0.011,0.041 -0.005,0.082 -0.02,0.124 v 0 c -0.728,2.001 -0.823,4.214 -0.354,6.204 v 0 l 4.822,-2.137 c -0.394,-1.965 -0.915,-3.767 -2.088,-5.126 v 0 z m 23.641,-39.717 c 0.672,1.186 1.296,2.396 1.826,3.645 v 0 c 2.418,5.691 3.35,11.979 2.644,18.147 v 0 c -0.414,3.58 -1.402,7.432 -3.114,12.125 v 0 c -0.837,2.301 -1.782,4.586 -2.787,6.833 v 0 c 0.006,0.009 0.009,0.019 0.015,0.028 v 0 c 0.003,0.008 0.008,0.016 0.011,0.024 v 0 c 8.598,-10.431 10.739,-25.744 5.384,-38.162 v 0 c -1.027,-2.367 -2.13,-4.147 -3.401,-5.472 v 0 c -0.158,0.952 -0.351,1.896 -0.578,2.832 m 0.213,21.975 c -0.207,1.741 -0.428,3.447 -0.648,5.138 v 0 c -0.563,4.356 -1.099,8.501 -1.371,12.873 v 0 l 0.014,0.029 c 0.916,-2.078 1.769,-4.196 2.542,-6.319 v 0 c 1.695,-4.643 2.671,-8.45 3.075,-11.977 v 0 c 0.78,-6.806 -0.475,-13.754 -3.538,-19.859 v 0 c 1.317,6.045 0.682,13.785 -0.074,20.115 m -5.639,-9.374 c -0.001,0.008 0.003,0.014 0,0.021 v 0 c -0.544,2.723 -0.805,5.484 -0.812,8.24 v 0 c 0,0.023 0.005,0.045 0.003,0.068 v 0 c -10e-4,0.009 -0.002,0.019 -0.003,0.03 v 0 c 0,6.138 1.313,12.246 3.872,17.856 v 0 c 0.291,-3.977 0.774,-7.798 1.291,-11.788 v 0 c 0.218,-1.686 0.442,-3.392 0.649,-5.13 v 0 c 0.763,-6.407 1.401,-14.263 -0.002,-20.256 v 0 c -1.108,3.877 -2.797,7.576 -4.998,10.959 m -5.671,6.902 c -0.597,0.579 -1.187,1.104 -1.776,1.596 v 0 c -1.406,3.651 -4.311,6.667 -7.083,9.183 v 0 c -0.748,0.677 -1.486,1.305 -2.206,1.918 v 0 c -2.368,2.016 -4.431,3.791 -5.966,6.509 v 0 l 10.209,-4.036 c 1.986,-0.787 4.044,-1.6 5.532,-3.027 v 0 c 2.619,-2.513 3.188,-6.545 3.564,-10.817 v 0 c 0.004,-1.312 0.064,-2.625 0.182,-3.936 v 0 c -0.777,0.904 -1.594,1.779 -2.456,2.61 m -6.401,4.662 c -2.383,1.152 -4.963,1.751 -7.507,2.128 v 0 c -0.78,0.874 -1.29,2.021 -1.719,2.995 v 0 c -1.377,3.12 -2.556,6.163 -1.952,9.051 v 0 c 1.601,-2.806 3.788,-4.669 6.095,-6.632 v 0 c 0.715,-0.608 1.448,-1.232 2.191,-1.905 v 0 c 2.438,-2.21 4.98,-4.807 6.462,-7.869 v 0 c -1.192,0.901 -2.375,1.653 -3.57,2.232 m -12.474,2.673 -2.209,0.199 c -0.984,3.709 0.876,7.836 2.841,11.207 v 0 c -0.542,-2.997 0.637,-6.073 2.025,-9.219 v 0 c 0.366,-0.827 0.789,-1.773 1.384,-2.605 v 0 c -1.378,0.177 -2.738,0.304 -4.041,0.418 M 223.3,378.267 c -1.086,3.119 -0.384,6.694 0.293,10.157 v 0 c 0.14,0.711 0.278,1.42 0.403,2.121 v 0 c 0.955,5.399 1.028,10.856 0.227,16.255 v 0 c 1.482,-1.106 2.71,-3.187 3.669,-6.221 v 0 c 1.228,-3.894 1.776,-7.05 1.725,-9.928 v 0 c -0.063,-3.525 -1.103,-6.745 -2.932,-9.068 v 0 c -0.599,-0.761 -1.294,-1.452 -2.031,-2.184 v 0 c -0.391,-0.392 -0.793,-0.792 -1.184,-1.208 v 0 c -0.056,0.029 -0.113,0.055 -0.17,0.076 m -31.755,-4.961 c -1.119,0.3 -2.247,0.572 -3.377,0.845 v 0 c -3.286,0.792 -6.391,1.539 -9.26,2.955 v 0 c -6.968,3.435 -12.323,10.997 -14.696,20.752 v 0 c -0.213,0.868 -0.173,1.402 -0.073,1.637 v 0 c 0.027,0.065 0.061,0.106 0.093,0.126 v 0 c 0.172,0.109 0.704,0.062 0.989,0.038 v 0 l 6.994,-0.621 c 3.949,-0.352 8.034,-0.715 11.579,-2.429 v 0 c 1.88,-0.911 3.755,-2.281 5.73,-4.191 v 0 c 6.349,-6.14 10.347,-14.458 11.237,-23.212 v 0 c -2.576,2.002 -5.621,3.135 -9.216,4.1 m 34.689,4.014 c 0.082,0.081 0.164,0.162 0.246,0.246 v 0 c 0.756,0.753 1.541,1.534 2.236,2.418 v 0 c 0.573,0.728 1.076,1.528 1.515,2.382 v 0 c 4.557,3.781 9.365,7.306 14.358,10.47 v 0 c 1.704,1.083 3.503,2.132 5.399,2.547 v 0 c 1.128,-0.004 2.256,-0.078 3.375,-0.243 v 0 c -0.065,-0.303 -0.144,-0.604 -0.222,-0.905 v 0 c -4.863,-5.469 -10.502,-10.147 -16.81,-13.903 v 0 c -2.165,-1.29 -4.831,-2.694 -7.718,-3.425 v 0 c -0.792,0.167 -1.586,0.31 -2.379,0.413 m 5.694,10.269 c 0.014,0.013 0.031,0.018 0.044,0.032 v 0 c 4.046,4.404 9.785,7.115 15.718,7.664 v 0 c -1.219,-0.533 -2.377,-1.223 -3.449,-1.902 v 0 c -4.639,-2.94 -9.123,-6.19 -13.395,-9.663 v 0 c 0.488,1.211 0.856,2.508 1.082,3.869 m -1.032,-11.246 c -0.321,0.092 -0.645,0.177 -0.969,0.259 v 0 c 2.513,0.798 4.817,2.032 6.736,3.175 v 0 c 5.969,3.555 11.35,7.925 16.045,13.008 v 0 c -1.317,-3.846 -3.843,-7.532 -7.346,-10.767 v 0 c -2.421,-1.414 -4.894,-2.802 -7.425,-4.022 v 0 c -1.443,-0.694 -2.971,-1.358 -4.558,-1.743 v 0 c -0.236,-0.008 -0.47,-0.012 -0.7,-0.012 v 0 c -0.635,0 -1.24,0.032 -1.783,0.102 m 5.935,-2.308 c 1.579,0.289 3.012,0.738 3.982,1.334 v 0 c 3.607,2.211 6.658,4.82 9.096,7.668 v 0 c 2.666,-1.106 4.737,-3.575 5.37,-6.608 v 0 c -0.043,-0.016 -0.09,-0.032 -0.15,-0.05 v 0 c -1.18,-0.352 -2.468,-0.517 -3.714,-0.678 v 0 l -14.122,-1.813 c -0.036,-0.005 -0.065,-0.026 -0.101,-0.033 v 0 c -0.118,0.06 -0.24,0.12 -0.361,0.18 m 1.385,3.379 c 1.466,0.707 2.907,1.475 4.332,2.264 v 0 c -0.976,-0.734 -2.002,-1.439 -3.087,-2.104 v 0 c -0.719,-0.44 -1.869,-0.784 -3.156,-1.014 v 0 c 0.651,0.27 1.291,0.555 1.911,0.854 m 6.358,-18.324 c -8.851,1.172 -16.969,7.176 -20.677,15.298 v 0 c -0.101,0.223 -0.161,0.421 -0.207,0.564 v 0 c 1.573,-0.075 3.155,-0.296 4.734,-0.647 v 0 c 0.518,-0.207 1.135,-0.367 1.83,-0.472 v 0 c 5.69,-1.645 11.277,-5.029 16.213,-9.905 v 0 c 0.605,-0.599 2.554,-2.664 1.775,-3.983 v 0 c -0.426,-0.757 -1.535,-0.936 -2.487,-0.936 v 0 c -0.463,0 -0.888,0.042 -1.181,0.081 M 200.45,347.56 c -4.055,1.601 -8.089,3.405 -11.985,5.364 v 0 c -1.265,0.636 -2.528,1.426 -3.863,2.262 v 0 c -1.509,0.943 -3.053,1.899 -4.615,2.632 v 0 c 7.405,-0.054 14.606,-3.296 21.929,-6.931 v 0 l 0.414,-0.203 c 1.252,-0.612 4.438,-2.171 5.125,-3.586 v 0 c 0.002,-0.169 0.033,-0.326 0.095,-0.476 v 0 c -0.623,-0.219 -1.276,-0.314 -1.949,-0.314 v 0 c -1.654,0 -3.426,0.571 -5.151,1.252 m -3.286,-0.537 c -4.288,1.639 -8.246,4.218 -12.075,6.713 v 0 c -1.218,0.794 -2.51,1.651 -3.691,2.623 v 0 c 0.962,-0.54 1.918,-1.132 2.86,-1.721 v 0 c 1.29,-0.807 2.625,-1.643 3.918,-2.293 v 0 c 3.914,-1.966 7.964,-3.78 12.037,-5.386 v 0 c 2.342,-0.924 4.775,-1.648 6.978,-1.117 v 0 c -0.339,-0.355 -1.015,-0.71 -2.358,-0.71 v 0 c -1.528,0 -3.921,0.458 -7.669,1.891 m 16.81,-15.225 c 0.777,1.59 1.581,3.233 2.653,4.597 v 0 c 1.05,1.334 2.195,2.636 3.303,3.894 v 0 c 1.306,1.485 2.647,3.006 3.862,4.621 v 0 c -2.121,-5.463 -5.693,-10.33 -10.261,-14.012 v 0 c 0.149,0.298 0.296,0.6 0.443,0.9 m -0.493,2.893 c 0.271,0.64 0.58,1.231 0.88,1.691 v 0 c 1.602,2.445 3.925,4.434 6.172,6.356 v 0 l 2.226,1.904 c -1.064,-1.353 -2.197,-2.656 -3.316,-3.925 v 0 c -1.112,-1.266 -2.264,-2.573 -3.323,-3.922 v 0 c -1.116,-1.418 -1.934,-3.093 -2.726,-4.712 v 0 c -0.231,-0.471 -0.469,-0.928 -0.704,-1.389 v 0 c -0.21,0.999 0.201,2.61 0.791,3.997 m 0.362,-4.994 c -0.263,0.038 -0.442,0.104 -0.59,0.182 v 0 c 4.715,3.603 8.448,8.417 10.765,13.871 v 0 c 0.065,0.154 0.122,0.315 0.185,0.472 v 0 c -0.297,-2.873 -1.351,-5.742 -3.096,-8.257 v 0 c -2.191,-3.153 -5.376,-6.28 -7.087,-6.28 v 0 c -0.061,0 -0.12,0.004 -0.177,0.012" /></g></g></g></g><g
       id="g60"><g
         clip-path="url(#clipPath66)"
         id="g62"><g
           transform="translate(204.3057,354.7266)"
           id="g68"><path
             id="path70"
             style="fill:#303502;fill-opacity:1;fill-rule:nonzero;stroke:none"
             d="m 0,0 c 0.134,-0.065 0.27,-0.132 0.407,-0.2 -0.992,3.534 -2.646,6.719 -4.863,9.338 l -0.048,0.055 -0.019,0.024 c -0.699,0.821 -1.486,1.496 -2.343,2.086 -0.008,-0.471 -0.03,-0.936 -0.03,-1.411 0,-2.307 0.085,-4.549 0.241,-6.738 2.09,-0.922 4.171,-1.923 6.259,-2.959 z" /></g><g
           transform="translate(206.0928,340.7153)"
           id="g72"><path
             id="path74"
             style="fill:#303502;fill-opacity:1;fill-rule:nonzero;stroke:none"
             d="m 0,0 c -0.413,-0.049 -0.845,-0.074 -1.292,-0.074 -1.35,0 -2.775,0.231 -4.16,0.56 C -2.913,-7.792 1.107,-14.821 6.476,-20.529 3.536,-16.2 1.468,-11.296 0.609,-6.166 0.267,-4.116 0.103,-2.069 0,0" /></g><g
           transform="translate(202.6309,396.7485)"
           id="g76"><path
             id="path78"
             style="fill:#ec008c;fill-opacity:1;fill-rule:nonzero;stroke:none"
             d="M 0,0 C 0.756,-6.33 1.39,-14.07 0.073,-20.115 3.136,-14.01 4.393,-7.062 3.611,-0.256 3.207,3.271 2.23,7.077 0.537,11.72 c -0.774,2.123 -1.628,4.242 -2.543,6.32 L -2.021,18.01 C -1.748,13.638 -1.212,9.494 -0.647,5.137 -0.429,3.447 -0.208,1.741 0,0" /></g><g
           transform="translate(216.627,336.3955)"
           id="g80"><path
             id="path82"
             style="fill:#1d6434;fill-opacity:1;fill-rule:nonzero;stroke:none"
             d="M 0,0 C -1.073,-1.364 -1.876,-3.007 -2.653,-4.596 -2.8,-4.897 -2.947,-5.198 -3.096,-5.496 1.472,-1.815 5.044,3.051 7.165,8.514 5.95,6.899 4.609,5.378 3.303,3.894 2.195,2.636 1.05,1.334 0,0" /></g><g
           transform="translate(178.7754,414.4888)"
           id="g84"><path
             id="path86"
             style="fill:#ed1443;fill-opacity:1;fill-rule:nonzero;stroke:none"
             d="M 0,0 2.359,-0.933 C 3.532,0.426 4.054,2.228 4.448,4.193 L -0.372,6.33 C -0.843,4.339 -0.747,2.127 -0.019,0.125 -0.004,0.084 -0.011,0.042 0,0" /></g><g
           transform="translate(196.1821,395.7026)"
           id="g88"><path
             id="path90"
             style="fill:#f78fcc;fill-opacity:1;fill-rule:nonzero;stroke:none"
             d="m 0,0 c 0.002,-0.023 -0.003,-0.044 -0.002,-0.068 0.006,-2.755 0.268,-5.516 0.812,-8.24 0.002,-0.006 -0.001,-0.013 0,-0.021 2.2,-3.381 3.889,-7.082 4.997,-10.959 1.403,5.994 0.765,13.85 10e-4,20.257 C 5.601,2.708 5.379,4.412 5.16,6.1 4.644,10.089 4.16,13.91 3.869,17.886 1.311,12.276 -0.003,6.168 -0.003,0.03 -0.002,0.02 -0.001,0.01 0,0" /></g><g
           transform="translate(191.8203,408.2852)"
           id="g92"><path
             id="path94"
             style="fill:#ec008c;fill-opacity:1;fill-rule:nonzero;stroke:none"
             d="m 0,0 c 1.17,-1.122 1.994,-2.431 2.604,-3.861 0.445,2.293 1.063,4.552 1.855,6.756 0.302,2.195 -0.694,5.853 -2.048,7.457 -1.557,1.845 -3.739,3.189 -5.668,4.261 -1.005,0.557 -1.549,0.542 -1.642,0.45 C -4.998,14.961 -5.104,14.577 -5.138,14.451 -5.399,13.47 -5.585,12.447 -5.771,11.424 -6.221,8.94 -6.689,6.385 -8.173,4.278 L -6.372,3.566 C -4.255,2.728 -1.854,1.779 0,0" /></g><g
           transform="translate(226.4805,377.5659)"
           id="g96"><path
             id="path98"
             style="fill:#ec008c;fill-opacity:1;fill-rule:nonzero;stroke:none"
             d="M 0,0 C -0.083,-0.082 -0.165,-0.164 -0.247,-0.246 0.547,-0.349 1.34,-0.492 2.132,-0.658 5.02,0.072 7.685,1.476 9.851,2.766 16.158,6.522 21.797,11.2 26.66,16.67 c 0.078,0.3 0.157,0.601 0.222,0.903 -1.118,0.166 -2.246,0.241 -3.374,0.245 C 21.611,17.402 19.812,16.353 18.107,15.271 13.115,12.106 8.308,8.581 3.75,4.8 3.312,3.946 2.809,3.146 2.235,2.418 1.541,1.534 0.757,0.754 0,0" /></g><g
           transform="translate(223.4697,378.1914)"
           id="g100"><path
             id="path102"
             style="fill:#1d6434;fill-opacity:1;fill-rule:nonzero;stroke:none"
             d="M 0,0 C 0.392,0.417 0.793,0.816 1.186,1.208 1.922,1.939 2.616,2.631 3.215,3.392 5.044,5.714 6.084,8.935 6.147,12.46 6.198,15.339 5.65,18.494 4.422,22.388 3.463,25.422 2.234,27.503 0.753,28.609 1.555,23.209 1.479,17.753 0.525,12.354 0.401,11.652 0.263,10.944 0.124,10.233 -0.555,6.771 -1.255,3.194 -0.17,0.076 -0.112,0.055 -0.056,0.029 0,0" /></g><g
           transform="translate(247.6895,395.2852)"
           id="g104"><path
             id="path106"
             style="fill:#880046;fill-opacity:1;fill-rule:nonzero;stroke:none"
             d="m 0,0 c -5.932,-0.548 -11.672,-3.261 -15.717,-7.664 -0.013,-0.014 -0.031,-0.019 -0.044,-0.032 -0.226,-1.361 -0.594,-2.658 -1.083,-3.869 4.272,3.475 8.756,6.722 13.396,9.664 C -2.377,-1.223 -1.219,-0.533 0,0" /></g><g
           transform="translate(239.4614,377.5747)"
           id="g108"><path
             id="path110"
             style="fill:#ec008c;fill-opacity:1;fill-rule:nonzero;stroke:none"
             d="M 0,0 C 1.085,0.665 2.11,1.369 3.087,2.103 1.661,1.314 0.221,0.546 -1.245,-0.161 -1.865,-0.459 -2.506,-0.744 -3.156,-1.015 -1.869,-0.785 -0.719,-0.44 0,0" /></g><g
           transform="translate(252.708,392.7856)"
           id="g112"><path
             id="path114"
             style="fill:#f78fcc;fill-opacity:1;fill-rule:nonzero;stroke:none"
             d="m 0,0 c -4.695,-5.083 -10.076,-9.454 -16.045,-13.009 -1.919,-1.143 -4.223,-2.376 -6.736,-3.175 0.323,-0.082 0.646,-0.167 0.969,-0.259 0.74,-0.095 1.596,-0.121 2.483,-0.09 1.587,0.386 3.115,1.05 4.558,1.743 2.531,1.221 5.003,2.608 7.424,4.022 C -3.843,-7.533 -1.317,-3.845 0,0" /></g><g
           transform="translate(202.3301,350.6846)"
           id="g116"><path
             id="path118"
             style="fill:#1d6434;fill-opacity:1;fill-rule:nonzero;stroke:none"
             d="m 0,0 -0.414,0.203 c -7.322,3.634 -14.524,6.877 -21.928,6.93 1.561,-0.732 3.106,-1.688 4.613,-2.632 1.336,-0.836 2.599,-1.626 3.865,-2.262 3.896,-1.958 7.929,-3.762 11.982,-5.363 C 0.547,-4.082 3.065,-4.822 5.22,-4.062 5.157,-3.913 5.127,-3.755 5.125,-3.587 4.437,-2.171 1.252,-0.612 0,0" /></g><g
           transform="translate(201,415.5508)"
           id="g120"><path
             id="path122"
             style="fill:#ed1639;fill-opacity:1;fill-rule:nonzero;stroke:none"
             d="m 0,0 c -0.005,-0.009 -0.009,-0.019 -0.014,-0.028 1.003,-2.245 1.95,-4.532 2.788,-6.832 1.711,-4.693 2.7,-8.546 3.112,-12.125 0.707,-6.169 -0.226,-12.456 -2.643,-18.147 -0.53,-1.249 -1.153,-2.46 -1.826,-3.644 0.227,-0.937 0.421,-1.882 0.578,-2.834 1.271,1.325 2.374,3.105 3.401,5.472 5.355,12.417 3.213,27.731 -5.384,38.162 C 0.009,0.016 0.004,0.009 0,0" /></g><g
           transform="translate(213.2529,329.8789)"
           id="g124"><path
             id="path126"
             style="fill:#1d6434;fill-opacity:1;fill-rule:nonzero;stroke:none"
             d="m 0,0 c 0.147,-0.077 0.327,-0.144 0.59,-0.182 1.658,-0.235 4.995,3.002 7.264,6.269 1.744,2.514 2.799,5.384 3.095,8.256 C 10.886,14.187 10.83,14.027 10.765,13.871 8.448,8.419 4.715,3.604 0,0" /></g><g
           transform="translate(180.2549,406.9731)"
           id="g128"><path
             id="path130"
             style="fill:#880046;fill-opacity:1;fill-rule:nonzero;stroke:none"
             d="m 0,0 c 0.72,-0.613 1.458,-1.241 2.205,-1.918 2.774,-2.516 5.678,-5.53 7.085,-9.183 0.587,-0.492 1.178,-1.017 1.775,-1.594 0.862,-0.833 1.678,-1.708 2.456,-2.612 -0.118,1.311 -0.178,2.624 -0.182,3.936 -0.375,4.272 -0.944,8.305 -3.565,10.817 C 8.287,0.873 6.23,1.687 4.243,2.473 L -5.968,6.51 C -4.431,3.79 -2.368,2.016 0,0" /></g><g
           transform="translate(230.2539,373.8335)"
           id="g132"><path
             id="path134"
             style="fill:#1d6434;fill-opacity:1;fill-rule:nonzero;stroke:none"
             d="m 0,0 c -0.696,0.105 -1.312,0.264 -1.83,0.472 -1.579,0.35 -3.161,0.572 -4.734,0.646 0.046,-0.143 0.106,-0.34 0.208,-0.563 3.708,-8.122 11.824,-14.127 20.675,-15.299 0.892,-0.117 3.035,-0.27 3.669,0.855 0.779,1.32 -1.17,3.385 -1.775,3.983 C 11.277,-5.03 5.689,-1.646 0,0" /></g><g
           transform="translate(249.9092,383.0371)"
           id="g136"><path
             id="path138"
             style="fill:#880046;fill-opacity:1;fill-rule:nonzero;stroke:none"
             d="m 0,0 c -2.438,-2.848 -5.489,-5.457 -9.097,-7.667 -0.969,-0.595 -2.402,-1.045 -3.981,-1.336 0.121,-0.059 0.241,-0.119 0.361,-0.18 0.035,0.008 0.065,0.03 0.101,0.035 l 14.122,1.813 c 1.245,0.16 2.533,0.325 3.714,0.677 0.059,0.018 0.107,0.034 0.149,0.049 C 4.736,-3.575 2.666,-1.106 0,0" /></g><g
           transform="translate(216.1196,336.7949)"
           id="g140"><path
             id="path142"
             style="fill:#1d6434;fill-opacity:1;fill-rule:nonzero;stroke:none"
             d="M 0,0 C 1.06,1.349 2.212,2.657 3.325,3.922 4.442,5.191 5.576,6.494 6.64,7.848 L 4.414,5.943 C 2.167,4.021 -0.156,2.033 -1.758,-0.413 -2.059,-0.872 -2.367,-1.464 -2.639,-2.104 -3.228,-3.49 -3.64,-5.102 -3.43,-6.101 c 0.236,0.461 0.474,0.918 0.704,1.389 C -1.934,-3.093 -1.115,-1.418 0,0" /></g><g
           transform="translate(172.4443,401.6123)"
           id="g144"><path
             id="path146"
             style="fill:#ec008c;fill-opacity:1;fill-rule:nonzero;stroke:none"
             d="M 0,0 C 1.303,-0.115 2.664,-0.242 4.043,-0.419 3.446,0.414 3.023,1.359 2.657,2.188 1.269,5.332 0.091,8.409 0.633,11.405 -1.333,8.033 -3.192,3.907 -2.209,0.196 Z" /></g><g
           transform="translate(177.4121,401.0659)"
           id="g148"><path
             id="path150"
             style="fill:#ec008c;fill-opacity:1;fill-rule:nonzero;stroke:none"
             d="M 0,0 C 2.544,-0.376 5.124,-0.977 7.507,-2.128 8.701,-2.707 9.885,-3.458 11.076,-4.36 9.596,-1.298 7.053,1.299 4.614,3.51 3.872,4.183 3.139,4.807 2.424,5.415 0.117,7.377 -2.07,9.24 -3.671,12.045 -4.275,9.159 -3.097,6.115 -1.719,2.996 -1.29,2.023 -0.78,0.875 0,0" /></g><g
           transform="translate(200.2129,346.9595)"
           id="g152"><path
             id="path154"
             style="fill:#1d6434;fill-opacity:1;fill-rule:nonzero;stroke:none"
             d="m 0,0 c -4.073,1.607 -8.123,3.419 -12.037,5.386 -1.293,0.65 -2.627,1.485 -3.918,2.293 -0.941,0.589 -1.899,1.18 -2.86,1.721 1.181,-0.972 2.473,-1.83 3.692,-2.624 C -11.295,4.282 -7.337,1.703 -3.05,0.063 3.997,-2.63 6.253,-1.877 6.978,-1.117 4.775,-1.648 2.342,-0.924 0,0" /></g><g
           transform="translate(191.5459,373.3062)"
           id="g156"><path
             id="path158"
             style="fill:#f466ba;fill-opacity:1;fill-rule:nonzero;stroke:none"
             d="M 0,0 C 3.594,-0.965 6.64,-2.098 9.214,-4.1 8.325,4.653 4.327,12.972 -2.022,19.112 c -1.975,1.91 -3.85,3.281 -5.731,4.191 -3.545,1.714 -7.629,2.076 -11.578,2.428 l -6.994,0.621 c -0.285,0.025 -0.818,0.072 -0.989,-0.037 -0.034,-0.02 -0.066,-0.062 -0.093,-0.127 -0.1,-0.234 -0.14,-0.768 0.073,-1.637 2.372,-9.754 7.73,-17.317 14.696,-20.751 2.87,-1.416 5.975,-2.164 9.26,-2.956 C -2.247,0.572 -1.119,0.3 0,0" /></g><g
           transform="translate(145.2354,206.1299)"
           id="g160"><path
             id="path162"
             style="fill:#5a6306;fill-opacity:1;fill-rule:nonzero;stroke:none"
             d="m 0,0 c 0,28.186 -2.844,44.897 -2.968,44.897 2.103,0.621 4.08,1.116 6.059,1.116 5.563,0 10.508,-2.969 10.508,-7.912 0,-13.106 -0.62,-40.823 -0.62,-49.968 0,-5.565 0.125,-12.983 6.182,-12.983 2.473,0 4.698,1.734 4.698,1.734 l 0.495,-0.372 c 0,0 -3.09,-7.665 -13.723,-7.665 -5.44,0 -11.126,2.595 -11.126,10.012 C -0.495,-14.094 0,-6.924 0,0 m -46.11,-58.475 c -1.61,0 -3.091,0.371 -4.328,1.114 v 0.618 c 7.665,2.968 11.249,7.911 11.249,55.63 0,21.51 -0.866,24.724 -5.687,26.58 l -3.214,1.235 v 5.193 c 5.194,0 8.407,1.114 8.407,7.418 0,18.79 10.136,27.197 24.848,27.197 12.363,0 20.398,-6.06 20.398,-14.341 L 4.944,51.798 c -2.718,4.45 -9.272,6.428 -15.328,6.428 -6.677,0 -15.7,-3.584 -15.7,-17.183 v -3.34 c 0,-1.605 -0.372,-5.808 -0.372,-5.808 h 8.902 c 5.068,0 6.675,1.237 6.675,1.237 0.123,-0.742 0.123,-2.722 0.123,-3.341 0,-5.189 -2.473,-6.303 -6.924,-6.303 -0.988,0 -7.17,0.123 -8.281,0.123 -0.372,-4.82 -0.495,-9.517 -0.495,-13.968 0,-12.611 0.372,-25.466 0.372,-43.27 0,-15.699 -9.52,-24.848 -20.026,-24.848" /></g><g
           transform="translate(201.6162,180.0449)"
           id="g164"><path
             id="path166"
             style="fill:#5a6306;fill-opacity:1;fill-rule:nonzero;stroke:none"
             d="m 0,0 c 11.003,0 16.317,14.095 16.317,28.186 0,12.98 -5.809,25.96 -17.677,25.96 -11.002,0 -16.196,-13.226 -16.196,-26.455 C -17.556,13.723 -11.744,0 0,0 m 0,59.832 c 20.769,0 31.399,-14.463 31.399,-29.422 0,-18.419 -11.373,-36.097 -32.636,-36.097 -20.768,0 -31.401,15.207 -31.401,31.277 0,17.68 11.251,34.242 32.638,34.242" /></g><g
           transform="translate(236.3584,229.9883)"
           id="g168"><path
             id="path170"
             style="fill:#5a6306;fill-opacity:1;fill-rule:nonzero;stroke:none"
             d="M 0,0 C -1.235,2.597 -2.596,5.439 -4.944,7.417 V 8.035 C -2.473,8.53 0,9.023 4.328,9.023 8.53,9.023 13.104,7.048 14.094,3.215 16.69,-7.417 24.726,-30.04 30.166,-43.762 h 0.616 c 7.665,17.06 9.891,24.479 9.891,31.154 0,7.416 -6.428,20.52 -6.428,20.52 0,0 2.224,1.111 7.17,1.111 4.202,0 8.9,-1.975 9.767,-5.808 2.47,-10.632 9.271,-33.255 14.835,-46.977 h 0.618 v 0.123 C 83.323,4.203 76.896,9.023 87.649,9.023 c 3.832,0 5.687,-0.988 5.687,-0.988 V 7.417 c 0,0 -3.091,-1.854 -6.429,-11.126 L 68.241,-55.63 c 0,0 -13.473,0.37 -16.688,10.754 -1.608,5.316 -3.463,11.868 -6.059,20.028 h -0.618 c -1.36,-5.438 -5.81,-14.712 -8.9,-21.385 l -4.329,-9.397 c 0,0 -12.733,0.37 -15.947,10.754 C 12.239,-33.626 4.574,-9.891 0,0" /></g><g
           transform="translate(353.6895,211.5693)"
           id="g172"><path
             id="path174"
             style="fill:#5a6306;fill-opacity:1;fill-rule:nonzero;stroke:none"
             d="m 0,0 c 5.562,0 11.621,3.092 11.621,10.755 0,5.81 -2.596,11.867 -9.642,11.867 -8.778,0 -13.475,-14.959 -13.475,-19.656 C -11.496,1.978 -5.19,0 0,0 m 3.586,28.309 c 16.316,0 22.745,-9.272 22.745,-17.677 0,-12.363 -12.978,-16.814 -23.858,-16.814 -7.171,0 -13.599,3.461 -13.599,3.461 l -0.493,-0.247 c 0,-14.835 6.921,-24.971 19.654,-24.971 10.138,0 19.409,7.045 19.409,7.045 l 0.619,-0.617 c 0,0 -4.205,-15.7 -24.972,-15.7 -16.566,0 -28.804,12.981 -28.804,31.152 0,17.062 11.249,34.368 29.299,34.368" /></g><g
           transform="translate(390.5352,206.0059)"
           id="g176"><path
             id="path178"
             style="fill:#5a6306;fill-opacity:1;fill-rule:nonzero;stroke:none"
             d="m 0,0 c 0,25.096 -2.596,31.647 -3.091,32.142 2.104,0.619 4.079,1.114 6.059,1.114 5.686,0 10.011,-2.845 10.011,-7.912 0,-1.857 -0.865,-4.574 -0.865,-4.574 l 0.495,-0.124 c 3.461,7.789 11.993,12.61 18.668,12.61 4.823,0 6.057,-2.104 6.057,-4.821 0,-2.721 -0.493,-6.183 -1.482,-8.781 l -0.619,-0.246 c -3.956,1.98 -7.046,3.463 -9.89,3.463 -9.643,0 -12.364,-10.015 -12.364,-23.735 0,-24.355 2.598,-28.806 2.845,-28.93 -3.091,-0.494 -6.057,-1.235 -8.654,-1.235 -4.573,0 -7.788,1.854 -7.788,9.517 C -0.618,-14.093 0,-6.8 0,0" /></g><g
           transform="translate(429.9756,189.9336)"
           id="g180"><path
             id="path182"
             style="fill:#5a6306;fill-opacity:1;fill-rule:nonzero;stroke:none"
             d="m 0,0 h 0.618 c 0,0 7.17,-8.899 19.286,-8.899 8.035,0 10.878,4.203 10.878,8.53 0,12.732 -32.14,10.88 -32.14,31.893 0,11.87 11.373,18.419 22.871,18.419 4.943,0 18.665,-1.852 18.665,-6.921 0,-2.596 -2.226,-6.552 -4.449,-8.902 h -0.62 c 0,0 -6.057,10.387 -15.453,10.387 -5.563,0 -9.641,-3.956 -9.641,-9.397 0,-12.609 32.141,-9.517 32.141,-31.646 0,-12.486 -12.116,-19.038 -23.612,-19.038 -8.16,0 -21.017,3.461 -21.017,8.776 0,1.978 1.484,5.069 2.473,6.798" /></g><g
           transform="translate(214.9863,152.168)"
           id="g184"><path
             id="path186"
             style="fill:#4f4c4d;fill-opacity:1;fill-rule:nonzero;stroke:none"
             d="m 0,0 c -0.896,0.987 -2.095,1.437 -3.621,1.437 h -3.921 v -15.501 h 3.921 c 1.526,0 2.725,0.449 3.621,1.434 1.108,1.229 1.139,3.532 1.139,6.466 C 1.139,-3.231 1.108,-1.228 0,0 m 2.215,-14.964 c -1.346,-1.348 -3.291,-2.005 -5.507,-2.005 h -7.482 v 21.31 h 7.482 c 2.216,0 4.161,-0.658 5.507,-2.007 2.304,-2.304 2.154,-5.417 2.154,-8.498 0,-3.084 0.15,-6.495 -2.154,-8.8" /></g><g
           transform="translate(235.8633,135.1992)"
           id="g188"><path
             id="path190"
             style="fill:#4f4c4d;fill-opacity:1;fill-rule:nonzero;stroke:none"
             d="M 0,0 V 21.31 H 13.619 V 18.406 H 3.232 v -6.225 h 8.86 V 9.309 H 3.232 V 2.903 H 13.619 V 0 Z" /></g><g
           transform="translate(271.2871,135.0195)"
           id="g192"><path
             id="path194"
             style="fill:#4f4c4d;fill-opacity:1;fill-rule:nonzero;stroke:none"
             d="m 0,0 c -3.201,0 -5.505,0.748 -7.542,2.813 l 2.156,2.124 C -3.83,3.384 -2.124,2.902 0.06,2.902 c 2.785,0 4.401,1.199 4.401,3.263 0,0.93 -0.27,1.706 -0.839,2.215 C 3.083,8.891 2.545,9.1 1.288,9.278 l -2.514,0.36 c -1.736,0.239 -3.113,0.837 -4.04,1.706 -1.048,0.985 -1.556,2.334 -1.556,4.069 0,3.711 2.692,6.254 7.123,6.254 2.812,0 4.788,-0.718 6.613,-2.424 L 4.85,17.209 c -1.318,1.258 -2.845,1.645 -4.639,1.645 -2.515,0 -3.892,-1.435 -3.892,-3.322 0,-0.776 0.241,-1.467 0.809,-1.973 0.538,-0.48 1.407,-0.838 2.393,-0.991 L 1.945,12.211 C 3.921,11.911 5.028,11.434 5.928,10.623 7.094,9.606 7.662,8.08 7.662,6.256 7.662,2.334 4.461,0 0,0" /></g><path
           id="path196"
           style="fill:#4f4c4d;fill-opacity:1;fill-rule:nonzero;stroke:none"
           d="m 295.01,156.508 h 3.232 v -21.309 h -3.232 z" /><g
           transform="translate(328.2812,137.4434)"
           id="g198"><path
             id="path200"
             style="fill:#4f4c4d;fill-opacity:1;fill-rule:nonzero;stroke:none"
             d="m 0,0 c -1.616,-1.705 -3.621,-2.424 -5.866,-2.424 -2.214,0 -4.129,0.809 -5.596,2.276 -2.096,2.093 -2.064,4.459 -2.064,8.559 0,4.101 -0.032,6.463 2.064,8.559 1.467,1.467 3.322,2.273 5.596,2.273 4.518,0 7.153,-2.962 7.753,-6.612 h -3.264 c -0.538,2.334 -2.095,3.712 -4.489,3.712 -1.257,0 -2.394,-0.512 -3.143,-1.319 -1.047,-1.137 -1.286,-2.334 -1.286,-6.613 0,-4.28 0.239,-5.507 1.286,-6.644 0.749,-0.808 1.886,-1.288 3.143,-1.288 1.407,0 2.635,0.541 3.472,1.498 0.778,0.897 1.078,1.973 1.078,3.35 v 1.198 h -4.55 V 9.278 H 1.915 V 6.017 C 1.915,3.264 1.407,1.497 0,0" /></g><g
           transform="translate(359.7529,135.1992)"
           id="g202"><path
             id="path204"
             style="fill:#4f4c4d;fill-opacity:1;fill-rule:nonzero;stroke:none"
             d="M 0,0 -9.846,14.994 V 0 h -3.232 v 21.31 h 2.963 L -0.269,6.345 V 21.31 H 2.964 L 2.964,0 Z" /></g></g></g><g
       id="g206"><g
         id="g208"><g
           id="g214"><g
             id="g216"><path
               id="path226"
               style="fill:url(#linearGradient224);stroke:none"
               d="m 322.885,378.435 c 1.789,-0.432 3.64,-0.926 5.601,-1.535 v 0 0 c -1.801,0.648 -3.679,1.142 -5.601,1.536 v 0 z" /></g></g></g></g></g></svg>